# xmcd CD database file
#
# Track frame offsets:
#	150
#	13116
#	39297
#	59282
#	83967
#	109637
#	132761
#	157070
#
# Disc length: 2364 seconds
#
# Revision: 1
# Processed by: cddbd v1.5.1PL0 Copyright (c) Steve Scherf et al.
# Submitted via: CDex 1.51
#
DISCID=5e093a08
DTITLE=mike pinto - steve pyne - sonance
DYEAR=2004
DGENRE=Jazz
TTITLE0=citymotionspacegame
TTITLE1=conflicted calculations
TTITLE2=intro
TTITLE3=awaighting
TTITLE4=stampede of the proton torpedoes
TTITLE5=miniature
TTITLE6=virus
TTITLE7=primordial spectrum state
EXTD=YEAR: 2004
EXTT0=
EXTT1=
EXTT2=
EXTT3=
EXTT4=
EXTT5=
EXTT6=
EXTT7=
PLAYORDER=
